<svg width="642" height="764" viewBox="0 0 642 764" fill="none" xmlns="http://www.w3.org/2000/svg">
<g filter="url(#filter0_f_105_11145)">
<path d="M418 74L456.5 86.3771L491 103.21L519 120.043L540.5 148.758L558 194.8L564.5 228.961L560.875 240.348L555.25 250.745L540.5 270.548L537.5 293.817V317.086L552.5 325.502L563 336.394L567 347.781L568.5 358.178L570 380.952L577 429.47L575.5 444.817L574 460.165L569.75 475.017L565.5 489.87L553.875 501.009L542.25 512.149L514.5 532.942L484.25 542.101L449.5 549.775L423 575.024L393.5 604.234L372 634.434L349.5 648.296L331 663.644H110V624.532V590.372L118 544.329L129.5 491.355L131.5 420.558L112 380.952L100 345.801V312.135L112 272.528L120.75 246.784L131.5 223.02L155 205.445L181 189.354L218 179.453L236.75 175.245L253.5 170.046L266.5 145.292L279 120.043L298 102.962L321 87.8623L346 78.9508L369 74H394.5H418Z" fill="#FCFCFC" fill-opacity="0.44"/>
</g>
<defs>
<filter id="filter0_f_105_11145" x="0" y="-26" width="677" height="789.644" filterUnits="userSpaceOnUse" color-interpolation-filters="sRGB">
<feFlood flood-opacity="0" result="BackgroundImageFix"/>
<feBlend mode="normal" in="SourceGraphic" in2="BackgroundImageFix" result="shape"/>
<feGaussianBlur stdDeviation="50" result="effect1_foregroundBlur_105_11145"/>
</filter>
</defs>
</svg>
